<svg id="Layer_1" data-name="Layer 1" xmlns="http://www.w3.org/2000/svg" viewBox="0 0 77.88 70.23"><defs><style>.cls-1{fill:#447e98;}.cls-2{fill:#f7f74a;}.cls-3{fill:#55545a;}.cls-4{fill:#fcfcfd;}</style></defs><path class="cls-1" d="M569.32,519.68c.48-.07.71-.74,1.36-.53-.9,1.21-2.31,2-2.83,3.41-.81,1.9-.14,3.84-.1,5.78l.1-.56c.13.89.52,1,1.25.52a25.68,25.68,0,0,1,2.69-1.43c.18-.07.59-.4.8,0s-.1.51-.29.72c-.86.94-1.68,1.94-2.61,2.82a15.74,15.74,0,0,0-1.83,2.26c-.25-.3-.39-.16-.39.13a.84.84,0,0,1-.39.75,10.6,10.6,0,0,0-1.1.88q-3.3,3.54-6.56,7.1a4.86,4.86,0,0,1-1,.2c-2.18-.11-4.38-.09-6.55-.05-5.38.09-10.76,0-16.13,0-2.86,0-5.72,0-8.58-.12a29.32,29.32,0,0,0-5.85,0,22.44,22.44,0,0,1-3.39-.1c-2.06,0-4.11,0-6.16,0-.53,0-.75-.14-.82-.73a31,31,0,0,1-.12-5.93c.18-2.68.06-5.35.09-8,.05-3.7-.08-7.41,0-11.1s0-7.15.25-10.73c.22-3.75.27-7.54.12-11.32-.07-1.88.16-3.79,0-5.68a.71.71,0,0,0,.66.11c1.87-.71,3.76-1.38,5.63-2.08,3.4-1.26,6.78-2.53,10.17-3.8,1.35-.51,2.68-1.05,4-1.57-3-.28-5.86-.19-8.75-.3-3.86-.15-7.72-.27-11.59-.12.3-.59.84-.36,1.28-.36h20.45l0-.28H510.45c.91-.53,1.89-.22,2.84-.22,6,0,12.08-.24,18.09.09,3.38.2,6.2-1.05,9.17-2.08a2.72,2.72,0,0,1,1.33-.31c-.44,1-1.39,1.33-2.14,1.86-.18,1-1.29.05-1.6.82a2.16,2.16,0,0,0,.55.2c2.32.09,4.66-.24,7,.22.41.09.68-.15.76-.57.9.28,1.53-.39,2.2-.72,1.89-.94,3.7-2.05,5.55-3.07.22-.11.52-.38.74-.06s-.25.37-.39.52c-1.06,1.15-2.58,1.8-3.52,3.09-.15,0-.31.17-.44.14-.35-.08-.82-.26-.85.23s.5.38.83.38l3.32,0c-.63.64-1.45.38-2.12.29a5.54,5.54,0,0,0-4.51,1.61c-3.14,2.61-6.41,5.06-9.56,7.64-2.44,2-5,3.83-7.35,5.94-2,1.8-4.28,3.32-6.42,5-1.76,1.38-3.49,2.81-5.2,4.27a68.49,68.49,0,0,0,6.83-3.87c2.89-1.76,5.81-3.47,8.71-5.22,4.81-2.88,9.6-5.8,14.41-8.66,1.28-.77,2.57-1.52,3.77-2.41l.23-.25v0a2.62,2.62,0,0,0,.56-.18c3.26-1.95,6.51-3.92,9.78-5.87,1.36-.82,2.75-1.6,4.13-2.4l.26.38c-5.35,4.49-10.92,8.69-16.38,13-3.51,2.76-7,5.5-10.53,8.29s-6.84,5.67-10.37,8.35-6.89,5.51-10.44,8.21c.35.19.51,0,.72-.12,1.16-.75,2.34-1.47,3.52-2.2,3.05-1.9,6.12-3.76,9.15-5.69s6-4,9-5.88c3.24-2,6.41-4,9.6-6.09l5.78-3.71q5.55-3.51,11.11-7c.29-.18.66-.69,1-.25s-.34.53-.55.71c-3.11,2.59-6.25,5.16-9.39,7.72-2.46,2-4.94,4-7.41,6-2.06,1.62-4.22,3.13-6.15,4.89-2.18,2-4.51,3.79-6.8,5.64-3,2.39-5.87,4.84-8.9,7.15s-5.89,4.73-8.82,7.13c-1.19,1-2.35,2-3.52,3,1.35-.76,2.81-1.28,4.12-2.08,2.58-1.58,5.18-3.11,7.8-4.62,3.25-1.88,6.53-3.67,9.77-5.56,4.23-2.46,8.45-4.94,12.62-7.49,1.15-.7,2.51-1.1,3.41-2.2,3.3-1.55,6.28-3.67,9.46-5.43a28.28,28.28,0,0,1,4.45-2.28c-1.18,1.51-2.83,2.46-4.25,3.66-2.49,2.11-5.1,4.07-7.66,6.09a8.28,8.28,0,0,0-.82.47c-2.25,1.77-4.48,3.58-6.75,5.34q-7,5.42-14,10.8c-2.16,1.67-4.36,3.3-6.45,5-1.65,1.38-3.56,2.45-5,4.08.34.18.57-.05.78-.2,1.65-1.11,3.27-2.24,4.91-3.36,3.26-2.2,6.53-4.38,9.79-6.59L556.61,510a28.68,28.68,0,0,0,3.66-2.75,1.56,1.56,0,0,0,.45-.11l9.18-6.3a33.34,33.34,0,0,1,4-2.66l.23.28-11.41,10a31.41,31.41,0,0,0-4.38,3.5c-3.52,2.92-6.92,6-10.38,9l-7.85,6.74c-3.6,3.08-7.18,6.17-10.8,9.23a2.77,2.77,0,0,0-.54.82l4.92-2.9,17-10.12q7.59-4.53,15.17-9.07a3.77,3.77,0,0,0,1.73-1.56c.31-.64,1.06-.17,1.36,0,.5.3,0,.54-.33.71s-.17.72-.58.86c-.13-.13-.26-.37-.38-.37s-.23.24-.17.44a.67.67,0,0,1-.1.65c-.5-.45-.81,0-1.1.28-2.28,1.76-4.51,3.55-6.78,5.31-4.17,3.23-8.36,6.44-12.53,9.67-1.53,1.19-3,2.43-4.56,3.66a.5.5,0,0,0,.71,0c.94-.57,1.87-1.15,2.82-1.71,3.17-1.86,6.36-3.7,9.52-5.59s6.11-3.74,9.19-5.55c.59-.35,1.11-1,1.91-.86l2.44-1.48-.06,0,.32-.41c0-.06,0-.08.11-.06Zm-24.23-38.9a.49.49,0,0,0-.52-.37H538.1a1.07,1.07,0,0,0-.65.23c-1.11.79-2.21,1.61-3.31,2.41-3.82,2.77-7.58,5.62-11.34,8.46-1.53,1.16-3.23,2.1-4.45,3.68Zm5.3,57a1.09,1.09,0,0,0,1,0q7.68-4.07,15.33-8.13a.91.91,0,0,0,.55-.86c0-2,0-4,0-6.3Z" transform="translate(-510.15 -472.51)"/><path class="cls-2" d="M552.2,497.68c2.47-2,4.95-4,7.41-6,3.14-2.56,6.28-5.13,9.39-7.72.21-.18.88-.26.55-.71s-.69.07-1,.25q-5.57,3.49-11.11,7l-5.78,3.71c-.65-.1-.48-.6-.51-1a18.44,18.44,0,0,0-.17-3.86c5.46-4.35,11-8.55,16.38-13l-.26-.38c-1.38.8-2.77,1.58-4.13,2.4-3.27,1.95-6.52,3.92-9.78,5.87a2.62,2.62,0,0,1-.56.18c-.17-.83.35-1.44.7-2.09a18.24,18.24,0,0,1,11.3-9.08,17.09,17.09,0,0,1,8.71-.34,18.9,18.9,0,0,1,14.55,20.3A18.33,18.33,0,0,1,583,503.93a17.28,17.28,0,0,1-7.56,5c-2.66.79-5.41,1.5-8.31.79-1.49-.36-3-.42-4.41-1.25l11.41-10-.23-.28a33.34,33.34,0,0,0-4,2.66l-9.18,6.3a1.56,1.56,0,0,1-.45.11,9.05,9.05,0,0,1-2.54-1.68c2.56-2,5.17-4,7.66-6.09,1.42-1.2,3.07-2.15,4.25-3.66a28.28,28.28,0,0,0-4.45,2.28c-3.18,1.76-6.16,3.88-9.46,5.43A17,17,0,0,1,552.2,497.68Z" transform="translate(-510.15 -472.51)"/><path class="cls-3" d="M510.45,479.58h22.61l0,.28H512.63c-.44,0-1-.23-1.28.36a1.93,1.93,0,0,0-.14,1.16q0,3.3,0,6.6c.14,1.89-.09,3.8,0,5.68.15,3.78.1,7.57-.12,11.32-.21,3.58-.22,7.17-.25,10.73s.09,7.4,0,11.1c0,2.67.09,5.34-.09,8a31,31,0,0,0,.12,5.93c.07.59.29.74.82.73,2.05,0,4.1,0,6.16,0a22.44,22.44,0,0,0,3.39.1,29.32,29.32,0,0,1,5.85,0c2.86.14,5.72.13,8.58.12,5.37,0,10.75.06,16.13,0,2.17,0,4.37-.06,6.55.05a4.86,4.86,0,0,0,1-.2c.08.07.16.19.26.21a37.51,37.51,0,0,0,6.7.22c.68,0,.9-.54.89-1.17,0-.92,0-1.84,0-2.75-.08-1.5.24-3-.18-4.49a.84.84,0,0,0,.39-.75c0-.29.14-.43.39-.13,0,3,0,6,0,9,0,.84-.24,1.08-1.08,1.07-4.7,0-9.41,0-14.11,0-13.62-.29-27.24-.14-40.86-.2-1.69,0-1.68,0-1.67-1.67,0-7.67-.06-15.34.07-23,.21-12.27.06-24.54.13-36.81C510.36,480.53,510.42,480.05,510.45,479.58Z" transform="translate(-510.15 -472.51)"/><path class="cls-3" d="M546.43,479.59c-.08.42-.35.66-.76.57-2.32-.46-4.66-.13-7-.22a2.16,2.16,0,0,1-.55-.2c.31-.77,1.42.14,1.6-.82.67.78,1.58.62,2.45.63A22.25,22.25,0,0,1,546.43,479.59Z" transform="translate(-510.15 -472.51)"/><path class="cls-3" d="M569,520.11l-2.44,1.48a3.35,3.35,0,0,0,.85-3.22,16.79,16.79,0,0,1,0-2,.67.67,0,0,0,.1-.65c-.06-.2-.08-.43.17-.44s.25.24.38.37a29.51,29.51,0,0,1,0,3.52C567.84,520.11,568.21,520.25,569,520.11Z" transform="translate(-510.15 -472.51)"/><path class="cls-3" d="M553.87,480.08l-3.32,0c-.33,0-.86.09-.83-.38s.5-.31.85-.23c.13,0,.29-.09.44-.14a7.63,7.63,0,0,0,2.48.09.59.59,0,0,1,.71.36S554,480,553.87,480.08Z" transform="translate(-510.15 -472.51)"/><path class="cls-3" d="M567.85,527.78l-.1.56c0-1.94-.71-3.88.1-5.78Z" transform="translate(-510.15 -472.51)"/><path class="cls-1" d="M569.52,513.51c0-.08,0-.18.08-.21.46-.28.85-.73,1.47-.6,0,0,.12.25.07.32a1.49,1.49,0,0,1-1.39.71Z" transform="translate(-510.15 -472.51)"/><path class="cls-1" d="M569.75,513.73c0,.26-.08.47-.4.45s-.31-.08-.3-.27.21-.4.47-.4Z" transform="translate(-510.15 -472.51)"/><path class="cls-2" d="M552.66,484.41l-.23.25C552.22,484.32,552.51,484.43,552.66,484.41Z" transform="translate(-510.15 -472.51)"/><path class="cls-3" d="M569.23,519.74l-.32.41C568.86,519.89,569,519.77,569.23,519.74Z" transform="translate(-510.15 -472.51)"/><polygon class="cls-3" points="59.17 47.17 59.19 47.17 59.18 47.07 59.17 47.17"/><path class="cls-4" d="M552.2,497.68a17,17,0,0,0,3.53,5.86c-.9,1.1-2.26,1.5-3.41,2.2-4.17,2.55-8.39,5-12.62,7.49-3.24,1.89-6.52,3.68-9.77,5.56-2.62,1.51-5.22,3-7.8,4.62-1.31.8-2.77,1.32-4.12,2.08,1.17-1,2.33-2,3.52-3,2.93-2.4,5.82-4.84,8.82-7.13s5.94-4.76,8.9-7.15c2.29-1.85,4.62-3.65,6.8-5.64C548,500.81,550.14,499.3,552.2,497.68Z" transform="translate(-510.15 -472.51)"/><path class="cls-4" d="M551,489.4a18.44,18.44,0,0,1,.17,3.86c0,.41-.14.91.51,1-3.19,2.05-6.36,4.12-9.6,6.09-3.07,1.87-6,3.95-9,5.88s-6.1,3.79-9.15,5.69c-1.18.73-2.36,1.45-3.52,2.2-.21.14-.37.31-.72.12,3.55-2.7,6.92-5.54,10.44-8.21s6.9-5.58,10.37-8.35S547.49,492.16,551,489.4Z" transform="translate(-510.15 -472.51)"/><path class="cls-4" d="M511.21,488q0-3.3,0-6.6a1.93,1.93,0,0,1,.14-1.16c3.87-.15,7.73,0,11.59.12,2.89.11,5.79,0,8.75.3-1.34.52-2.67,1.06-4,1.57-3.39,1.27-6.77,2.54-10.17,3.8-1.87.7-3.76,1.37-5.63,2.08A.71.71,0,0,1,511.21,488Z" transform="translate(-510.15 -472.51)"/><path class="cls-4" d="M557.73,505.58a9.05,9.05,0,0,0,2.54,1.68,28.68,28.68,0,0,1-3.66,2.75l-16.39,11.16c-3.26,2.21-6.53,4.39-9.79,6.59-1.64,1.12-3.26,2.25-4.91,3.36-.21.15-.44.38-.78.2,1.44-1.63,3.35-2.7,5-4.08,2.09-1.75,4.29-3.38,6.45-5q7-5.4,14-10.8c2.27-1.76,4.5-3.57,6.75-5.34A8.28,8.28,0,0,1,557.73,505.58Z" transform="translate(-510.15 -472.51)"/><path class="cls-4" d="M567.35,516.36a16.79,16.79,0,0,0,0,2,3.35,3.35,0,0,1-.85,3.22c-.8-.1-1.32.51-1.91.86-3.08,1.81-6.12,3.71-9.19,5.55s-6.35,3.73-9.52,5.59c-.95.56-1.88,1.14-2.82,1.71a.5.5,0,0,1-.71,0c1.53-1.23,3-2.47,4.56-3.66,4.17-3.23,8.36-6.44,12.53-9.67,2.27-1.76,4.5-3.55,6.78-5.31C566.54,516.41,566.85,515.91,567.35,516.36Z" transform="translate(-510.15 -472.51)"/><path class="cls-4" d="M545.09,480.78l-26.74,14.4c1.22-1.58,2.92-2.52,4.45-3.68,3.76-2.84,7.52-5.69,11.34-8.46,1.1-.8,2.2-1.62,3.31-2.41a1.07,1.07,0,0,1,.65-.23h6.47A.49.49,0,0,1,545.09,480.78Z" transform="translate(-510.15 -472.51)"/><path class="cls-4" d="M550.39,537.74l16.85-15.26c0,2.33,0,4.32,0,6.3a.91.91,0,0,1-.55.86q-7.65,4.08-15.33,8.13A1.09,1.09,0,0,1,550.39,537.74Z" transform="translate(-510.15 -472.51)"/><path class="cls-4" d="M567.08,533.55c.42,1.48.1,3,.18,4.49,0,.91,0,1.83,0,2.75,0,.63-.21,1.17-.89,1.17a37.51,37.51,0,0,1-6.7-.22c-.1,0-.18-.14-.26-.21q3.27-3.56,6.56-7.1A10.6,10.6,0,0,1,567.08,533.55Z" transform="translate(-510.15 -472.51)"/></svg>